<?xml version="1.0" standalone="no"?>
<!DOCTYPE svg PUBLIC "-//W3C//DTD SVG 20010904//EN"
 "http://www.w3.org/TR/2001/REC-SVG-20010904/DTD/svg10.dtd">
<svg version="1.0" xmlns="http://www.w3.org/2000/svg"
 width="873.000000pt" height="203.000000pt" viewBox="0 0 873.000000 203.000000"
 preserveAspectRatio="xMidYMid meet">

<g transform="translate(0.000000,203.000000) scale(0.100000,-0.100000)"
fill="#000000" stroke="none">
<path d="M1143 2007 c-45 -12 -84 -25 -87 -28 -4 -3 44 -29 106 -58 l113 -52
100 31 c55 17 104 32 109 33 14 5 -220 97 -242 96 -9 0 -54 -11 -99 -22z"/>
<path d="M932 1865 c-23 -47 -42 -89 -42 -94 0 -4 10 -12 23 -18 19 -9 27 -29
47 -112 13 -55 27 -105 30 -112 5 -8 18 -7 48 1 38 12 44 19 117 152 42 77 75
141 73 144 -4 4 -247 124 -251 124 -2 0 -22 -38 -45 -85z"/>
<path d="M1433 1861 c-61 -20 -114 -39 -118 -42 -3 -4 18 -69 48 -145 46 -119
59 -142 86 -158 18 -10 33 -17 35 -15 1 2 28 49 60 104 32 55 63 106 70 113
11 11 7 29 -22 98 -19 46 -38 84 -41 83 -3 -1 -56 -17 -118 -38z"/>
<path d="M6388 1849 c-24 -13 -110 -149 -105 -163 7 -18 82 -38 112 -30 26 6
95 104 95 134 0 20 -37 55 -65 63 -11 4 -28 2 -37 -4z"/>
<path d="M448 1801 c-71 -20 -128 -38 -128 -41 0 -3 56 -32 124 -64 l124 -58
137 43 137 43 -114 57 c-62 32 -122 58 -133 57 -11 0 -77 -17 -147 -37z"/>
<path d="M1830 1749 c-58 -22 -108 -44 -113 -48 -4 -4 49 -34 118 -66 144 -67
115 -67 289 5 49 20 85 40 80 43 -11 6 -263 107 -267 106 -1 0 -49 -18 -107
-40z"/>
<path d="M1212 1675 c-28 -51 -52 -96 -52 -98 0 -3 23 2 50 11 48 15 52 15 95
-6 l45 -22 -20 50 c-11 28 -29 74 -41 103 -11 28 -22 53 -23 54 -1 1 -25 -40
-54 -92z"/>
<path d="M240 1723 c0 -4 -52 -229 -116 -501 -63 -272 -112 -498 -107 -502 4
-4 71 -44 148 -89 98 -57 141 -77 146 -68 4 6 19 71 34 142 55 264 55 265 76
265 26 0 29 -10 79 -245 23 -110 44 -202 46 -204 2 -2 57 46 123 107 114 108
146 127 157 99 2 -7 -4 -108 -16 -223 -11 -115 -20 -223 -20 -241 0 -30 8 -37
169 -137 93 -58 173 -106 178 -106 8 0 76 1250 69 1258 -2 2 -73 34 -157 73
l-154 69 -121 -125 c-133 -140 -146 -145 -162 -67 -6 26 -25 118 -43 206 l-33
158 -125 60 c-148 70 -171 80 -171 71z"/>
<path d="M2955 1675 l-25 -24 0 -413 c0 -454 1 -458 58 -458 58 0 57 -7 62
324 l5 305 134 -292 c73 -161 142 -302 154 -314 22 -24 65 -30 96 -14 10 6 78
143 157 317 l139 308 3 -304 c1 -203 6 -308 13 -317 16 -18 74 -16 90 4 11 13
15 94 17 407 1 215 -1 409 -6 431 -11 53 -45 74 -90 56 -27 -11 -45 -46 -192
-369 -90 -196 -166 -360 -169 -364 -3 -3 -80 152 -171 345 -91 194 -175 362
-187 375 -29 29 -58 28 -88 -3z"/>
<path d="M4238 1677 c-21 -22 -334 -788 -339 -827 -4 -37 3 -51 28 -61 54 -20
66 -8 117 121 l48 120 193 0 193 0 42 -107 c51 -130 66 -148 109 -138 35 7 54
34 45 62 -26 78 -320 805 -333 821 -9 12 -30 24 -48 28 -26 5 -36 2 -55 -19z
m121 -350 c39 -97 71 -179 71 -182 0 -3 -66 -5 -146 -5 -135 0 -146 1 -140 18
26 69 140 351 142 349 1 -1 34 -82 73 -180z"/>
<path d="M8138 1689 c-32 -18 -41 -48 -23 -75 l15 -24 220 0 c121 0 220 -3
220 -7 0 -3 -106 -167 -235 -363 -147 -224 -235 -366 -235 -381 0 -48 5 -49
311 -49 311 0 319 1 319 54 0 47 -18 51 -252 56 l-219 5 235 356 c154 232 236
366 236 382 0 54 -19 57 -310 57 -160 0 -272 -5 -282 -11z"/>
<path d="M4726 1675 c-3 -9 -6 -210 -6 -445 0 -414 1 -430 19 -440 32 -17 69
-12 85 12 13 18 16 54 16 180 l0 158 73 0 72 0 135 -223 c127 -209 137 -222
167 -225 25 -2 35 2 48 22 20 30 23 23 -116 252 -54 90 -99 168 -99 173 0 5
33 11 73 13 95 5 140 28 175 87 25 43 27 53 27 171 0 155 -18 204 -93 248
l-47 27 -261 3 c-235 3 -262 2 -268 -13z m525 -124 c28 -29 29 -32 29 -130 0
-114 -10 -146 -53 -161 -17 -5 -110 -10 -208 -10 l-179 0 0 165 0 165 191 0
191 0 29 -29z"/>
<path d="M5431 1676 c-7 -8 -11 -27 -9 -43 5 -44 36 -53 191 -53 l137 0 0
-388 c0 -288 3 -391 12 -400 16 -16 70 -16 86 0 9 9 12 112 12 400 l0 388 136
0 c139 0 166 6 184 41 9 16 8 26 -5 45 l-15 24 -359 0 c-300 0 -361 -2 -370
-14z"/>
<path d="M7528 1676 c-62 -22 -89 -45 -111 -94 -21 -44 -22 -65 -25 -314 -4
-296 3 -359 46 -410 53 -63 92 -72 340 -76 193 -4 225 -2 247 12 28 18 34 66
12 84 -8 7 -98 12 -240 14 l-227 3 -27 28 c-27 26 -28 32 -32 142 l-3 115 240
0 c261 0 272 2 272 55 0 53 -11 55 -272 55 l-240 0 3 115 c4 109 6 116 31 141
23 24 38 28 112 34 47 4 92 12 100 20 19 15 21 61 4 78 -16 16 -183 15 -230
-2z"/>
<path d="M729 1632 l-136 -47 33 -158 c18 -88 35 -161 37 -163 3 -3 49 42 103
100 62 66 113 111 137 121 22 9 37 21 34 28 -2 7 -12 47 -22 90 -14 56 -23 77
-34 76 -9 0 -77 -22 -152 -47z"/>
<path d="M7187 1662 c-15 -17 -17 -55 -17 -345 0 -180 -3 -327 -7 -326 -5 0
-134 152 -288 337 -299 359 -313 372 -349 320 -14 -20 -16 -73 -16 -429 0
-381 1 -407 18 -422 22 -20 67 -22 79 -4 4 6 10 159 13 339 l5 327 250 -302
c353 -426 339 -413 385 -367 19 19 20 33 20 435 0 402 -1 416 -20 435 -25 25
-52 26 -73 2z"/>
<path d="M1617 1623 c-13 -21 -37 -63 -55 -93 l-31 -55 44 -18 c24 -10 46 -24
48 -30 3 -7 41 -60 85 -120 l79 -107 68 152 c37 84 69 159 72 165 3 8 -41 34
-121 72 -171 81 -161 79 -189 34z"/>
<path d="M2129 1581 l-137 -56 -89 -200 c-69 -155 -93 -201 -108 -203 -15 -2
-42 29 -114 128 -51 71 -98 130 -104 130 -6 0 -78 -24 -159 -52 -117 -42 -149
-57 -153 -73 -2 -11 -15 -276 -30 -590 -14 -314 -28 -590 -31 -614 l-6 -43
170 88 c164 86 170 90 176 124 3 19 6 149 6 288 0 249 5 292 33 292 7 0 69
-76 138 -170 68 -93 126 -170 129 -170 3 0 38 100 79 223 40 122 80 229 87
237 29 30 41 -9 66 -223 14 -114 28 -211 32 -214 4 -4 81 30 173 75 160 80
165 84 160 110 -3 15 -42 236 -88 492 -45 256 -85 468 -88 471 -3 4 -67 -19
-142 -50z"/>
<path d="M6272 1568 c-9 -9 -12 -109 -12 -390 l0 -378 24 -11 c35 -16 75 -3
86 27 6 14 10 174 10 372 0 388 -1 392 -64 392 -17 0 -37 -5 -44 -12z"/>
<path d="M1118 1501 c-75 -25 -139 -48 -142 -51 -6 -7 247 -120 267 -120 16 0
228 74 253 88 10 6 -24 27 -113 68 l-128 61 -137 -46z"/>
<path d="M396 699 c-15 -72 -26 -132 -24 -135 10 -9 108 31 108 44 0 29 -44
222 -50 222 -4 0 -19 -59 -34 -131z"/>
<path d="M1977 655 c-21 -63 -37 -120 -35 -125 2 -6 27 -21 56 -35 l52 -24 0
22 c0 22 -28 254 -33 270 -1 4 -19 -44 -40 -108z"/>
<path d="M1610 609 l0 -76 80 -36 c44 -19 80 -33 80 -31 0 5 -134 190 -151
209 -5 5 -9 -23 -9 -66z"/>
<path d="M675 566 l-60 -55 58 22 c41 16 59 28 63 44 12 45 -3 43 -61 -11z"/>
<path d="M4360 517 c-13 -7 -29 -25 -34 -40 -13 -36 14 -65 75 -78 24 -6 49
-15 56 -21 32 -26 -1 -68 -52 -68 -26 0 -40 7 -56 30 -25 33 -44 31 -28 -4 32
-70 169 -56 169 17 0 36 -13 47 -76 66 -51 15 -59 21 -62 43 -6 52 73 62 110
15 20 -26 34 -17 19 11 -10 18 -58 42 -85 42 -6 0 -22 -6 -36 -13z"/>
<path d="M5021 517 c-33 -17 -45 -39 -38 -69 7 -26 27 -37 97 -55 63 -16 50
-83 -16 -83 -33 0 -74 28 -74 50 0 6 -4 10 -10 10 -18 0 -10 -31 15 -55 34
-35 96 -35 130 0 44 43 24 88 -46 101 -43 8 -79 30 -79 49 0 17 38 45 63 45
10 0 29 -11 43 -25 32 -32 47 -32 32 0 -6 13 -24 29 -41 35 -38 13 -46 13 -76
-3z"/>
<path d="M8600 517 c-13 -7 -29 -25 -34 -40 -13 -36 14 -65 75 -78 24 -6 49
-15 56 -21 32 -26 -1 -68 -52 -68 -26 0 -40 7 -56 30 -25 33 -44 31 -28 -4 32
-70 169 -56 169 17 0 36 -13 47 -76 66 -51 15 -59 21 -62 43 -6 52 73 62 110
15 20 -26 34 -17 19 11 -10 18 -58 42 -85 42 -6 0 -22 -6 -36 -13z"/>
<path d="M2930 405 l0 -115 80 0 c97 0 107 18 13 22 l-68 3 0 40 0 40 63 3
c79 4 72 22 -9 22 l-59 0 0 40 0 40 70 0 c40 0 70 4 70 10 0 6 -33 10 -80 10
l-80 0 0 -115z"/>
<path d="M3260 405 c0 -138 18 -156 22 -22 l3 92 74 -92 c41 -51 78 -93 83
-93 4 0 8 52 8 115 0 137 -18 157 -22 24 l-3 -91 -73 91 c-40 50 -77 91 -82
91 -6 0 -10 -47 -10 -115z"/>
<path d="M3646 443 c20 -43 43 -95 52 -115 8 -21 20 -38 27 -38 7 0 29 37 50
83 66 144 67 147 53 147 -7 0 -31 -41 -53 -91 -21 -50 -42 -92 -46 -95 -4 -2
-26 39 -50 91 -23 52 -48 95 -56 95 -8 0 0 -26 23 -77z"/>
<path d="M4017 463 c-14 -32 -37 -84 -51 -115 -20 -44 -22 -58 -12 -58 8 0 20
16 26 35 l12 35 62 0 c61 0 63 -1 79 -35 9 -19 21 -35 27 -35 14 0 15 -4 -40
116 -27 60 -55 110 -63 112 -9 2 -24 -19 -40 -55z m63 -19 c11 -26 20 -50 20
-55 0 -5 -20 -9 -45 -9 -25 0 -45 3 -45 6 0 8 42 104 46 104 2 0 12 -21 24
-46z"/>
<path d="M4660 405 l0 -115 80 0 c97 0 107 18 13 22 l-68 3 0 40 0 40 58 3
c76 4 74 22 -3 22 l-60 0 0 40 0 40 70 0 c40 0 70 4 70 10 0 6 -33 10 -80 10
l-80 0 0 -115z"/>
<path d="M5410 444 c38 -59 50 -86 50 -115 0 -22 5 -39 10 -39 6 0 10 20 10
46 0 36 8 57 38 102 54 80 55 82 40 82 -7 0 -30 -27 -52 -60 -21 -33 -40 -60
-41 -60 -2 0 -20 27 -40 60 -20 33 -43 60 -51 60 -8 0 4 -28 36 -76z"/>
<path d="M5820 405 l0 -115 74 0 c41 0 78 4 81 10 4 6 -20 10 -64 10 l-71 0 0
45 0 45 60 0 c33 0 60 4 60 10 0 6 -27 10 -60 10 l-60 0 0 40 0 40 70 0 c40 0
70 4 70 10 0 6 -33 10 -80 10 l-80 0 0 -115z"/>
<path d="M6150 405 c0 -134 18 -158 22 -29 l3 86 35 -61 c19 -33 40 -61 46
-61 5 0 26 27 45 60 l34 59 5 -81 c3 -52 9 -83 18 -86 9 -3 12 24 12 113 0 87
-3 116 -12 113 -7 -3 -30 -34 -53 -70 -22 -37 -42 -69 -45 -72 -3 -3 -26 28
-50 69 -25 41 -48 75 -52 75 -5 0 -8 -52 -8 -115z"/>
<path d="M6550 404 l0 -116 69 4 c50 2 75 9 90 22 26 24 27 58 1 81 -17 16
-18 20 -5 38 20 29 19 43 -5 67 -16 16 -33 20 -85 20 l-65 0 0 -116z m134 80
c34 -34 4 -64 -65 -64 l-49 0 0 40 0 40 49 0 c32 0 55 -6 65 -16z m10 -103
c34 -37 -4 -71 -78 -71 l-46 0 0 45 0 45 53 0 c40 0 58 -5 71 -19z"/>
<path d="M6926 426 c-25 -52 -47 -104 -51 -115 -11 -36 14 -23 29 14 15 35 16
35 76 35 59 0 61 -1 77 -35 15 -32 33 -46 33 -27 0 21 -97 222 -108 222 -7 0
-32 -42 -56 -94z m100 -43 c-2 -2 -25 -3 -50 -1 l-46 3 26 54 25 55 25 -53
c13 -30 23 -56 20 -58z"/>
<path d="M7252 408 l3 -113 69 -3 c39 -2 74 2 80 8 7 7 -10 10 -57 10 l-67 0
0 105 c0 88 -3 105 -15 105 -13 0 -15 -17 -13 -112z"/>
<path d="M7597 415 c-26 -58 -47 -110 -47 -115 0 -23 20 -7 31 25 13 35 13 35
74 35 60 0 62 -1 78 -35 9 -19 21 -35 27 -35 14 0 15 -3 -39 117 -27 59 -55
109 -63 111 -9 2 -30 -34 -61 -103z m91 13 l21 -48 -51 0 c-36 0 -49 3 -45 13
45 112 42 111 75 35z"/>
<path d="M8040 432 c0 -73 -3 -92 -18 -105 -26 -24 -59 -21 -86 8 -28 30 -36
32 -29 5 11 -43 78 -64 123 -40 25 14 40 70 40 153 0 53 -3 67 -15 67 -12 0
-15 -16 -15 -88z"/>
<path d="M8240 405 l0 -115 80 0 c47 0 80 4 80 10 0 6 -28 10 -65 10 l-65 0 0
45 0 45 60 0 c33 0 60 4 60 10 0 6 -27 10 -60 10 l-60 0 0 40 0 40 65 0 c37 0
65 4 65 10 0 6 -33 10 -80 10 l-80 0 0 -115z"/>
</g>
</svg>
